<svg xmlns="http://www.w3.org/2000/svg" viewBox="0 0 2696.05 2006"><defs><style>.cls-1{fill:#cc4c9b;}.cls-2{fill:none;}.cls-3,.cls-6,.cls-9{fill:#a8afff;}.cls-4{fill:#fff;}.cls-5,.cls-6{opacity:0.25;}.cls-7{fill:#7680ce;}.cls-8{fill:#f4edef;}.cls-9{font-size:39.65px;font-family:Mohave-Light, Mohave Light;font-weight:300;letter-spacing:-0.02em;}.cls-10{fill:#ffd648;}.cls-11{fill:#1ed4df;}.cls-12{fill:#ff65b1;}.cls-13{fill:#ed89e1;}.cls-14{fill:#69b5ff;}.cls-15{fill:#f772be;}.cls-16{fill:#332a59;}.cls-17{fill:#ff85c6;}.cls-18{fill:#f75eb5;}.cls-19{fill:#963576;}</style></defs><title>2777145</title><g id="BACKGROUND"><path class="cls-1" d="M-154.52,538.2l-6.92-2.93-.44-.18Z" transform="translate(845.42 634.1)"/><rect class="cls-2" y="608.64" width="750" height="500"/></g><g id="OBJECTS"><path class="cls-3" d="M-443.28-501.87A174.65,174.65,0,0,0-655.17-628.81,174.65,174.65,0,0,0-782.11-416.93,174.66,174.66,0,0,0-570.22-290a175.07,175.07,0,0,0,39.48-15.17c14.6,7,33.82,16.58,48,23.73a9.88,9.88,0,0,0,14-11.25L-481.6-344A174.44,174.44,0,0,0-443.28-501.87Z" transform="translate(845.42 634.1)"/><circle class="cls-4" cx="146.02" cy="176.88" r="18.41"/><circle class="cls-4" cx="232.73" cy="176.88" r="18.41"/><circle class="cls-4" cx="319.43" cy="176.88" r="18.41"/><g class="cls-5"><path class="cls-3" d="M979.76,840.94c17.61-35,56-55.72,94.64-62.06,31.68-5.2,70.13-7.69,101.67-1.83,39.09,7.27,78.53,20.85,118.73,14.4a123.75,123.75,0,0,0,64.11-31.25c38.79-36,12.67-68.55-24.67-91.33,53,4.93,111.5-33.37,142.24-74.73,19-25.51,48.59-68.53,21.68-98-12.88-14.13-32.76-20.08-51.87-20.57,32-29.8,58.64-66.21,72.51-107.68,11.43-34.18,15.58-76.76,2.57-111.22-10.24-27.14-51.56-65-82.53-48.64-35.78,18.91-63,61.89-77.63,98.24-15.55,38.81-20.35,79.47-28.71,120-16.1-40.12-63.59-53.84-89.3-16.31-35.13,51.27-34,105.47-44.54,164.1a75.66,75.66,0,0,0-9.35-34.77c-11-20-36.07-27.4-55.79-16-18.44,10.67-31.64,28.81-40.15,48.34-20.14,46.2-2.77,94.85-24.92,140.24a234,234,0,0,1-42.26,60.4c-16,16.44-39.38,25.53-52.11,45.12-9,13.9-8.79,30.66-14,46.25" transform="translate(845.42 634.1)"/></g><path class="cls-4" d="M1152.16,704.7q1.41-93,12-185.32a38.85,38.85,0,0,1,4.31,1.43q-10.34,90.3-11.82,181.32c23-13.23,45.58-26.34,66.3-40.12a500.75,500.75,0,0,0,47-35.62q.24-117.06-7.15-233.89a41.47,41.47,0,0,1,4.34-1.91q7.38,115.82,7.23,232c8.67-7.54,17.14-15.3,25.28-23.4q-2-103.23,2.39-206.41c1.47.69,2.9,1.47,4.32,2.31q-4.18,99.78-2.32,199.68a537.37,537.37,0,0,0,120.32-190.65q-20.07-72.75-37.5-146.17c1.11-1.63,2.26-3.24,3.42-4.84q17.07,72.06,36.64,143.48a527.32,527.32,0,0,0,18.6-66.26c.84-4,7.13-3,6.29,1a534.75,534.75,0,0,1-20.45,71.9c25.67-2.34,51.22-5.52,76.68-9.35-.79,1.62-1.51,3.27-2.33,4.87-25,3.71-50.08,6.79-75.28,9.06a2.17,2.17,0,0,1-.78-.09,544.14,544.14,0,0,1-119,188.92q72.9,8.52,145.27,20.76c-1.35,1.29-2.76,2.56-4.16,3.83q-72.1-12.08-144.76-20.56s-.08,0-.13,0c-8.65,8.76-17.69,17.14-26.94,25.31q61.63,15.61,124,28.12c-2.28,1.12-4.6,2.13-6.92,3.14q-60.86-12.45-121.1-27.68c-7.56,6.54-15.25,12.95-23.19,19.08-27.11,20.93-58.55,39.44-90.82,57.89q97.32,25.47,192.71,57.49c-1.34,1.13-2.68,2.24-4.07,3.31q-96-32-193.93-57.64a.75.75,0,0,1-.13-.06c-46.46,26.52-94.24,53.22-133,87.14C1005,807.25,989.3,822,979.76,840.94l-18.32,21.11C1001.3,790.68,1078.82,746.78,1152.16,704.7Z" transform="translate(845.42 634.1)"/><path class="cls-6" d="M890.74,536a1745.6,1745.6,0,0,0,173-228.07,185.77,185.77,0,0,1-31.83-50.9c-10.17-24.39-14.49-54,0-76.12,1.88-2.86,4.14-5.63,7.21-7.16,6.4-3.2,14.31-.05,19.66,4.71,8.52,7.59,13,18.69,16,29.69a158,158,0,0,1,.3,81.59q34.59-55.78,64.93-114a185.55,185.55,0,0,1-32.22-51.36c-10.16-24.39-14.49-54,0-76.12,1.87-2.87,4.13-5.63,7.2-7.16,6.41-3.2,14.31-.05,19.66,4.71,8.52,7.59,13,18.68,16,29.69a157.86,157.86,0,0,1,1.51,76.36Q1179.54,97.5,1203,41.36a6.36,6.36,0,0,1-1.45-1.13,185.62,185.62,0,0,1-35.51-50.75c-11.32-23.88-17-53.25-3.65-76,1.74-3,3.87-5.82,6.86-7.5,6.25-3.5,14.29-.73,19.86,3.77,8.88,7.17,13.91,18,17.45,28.89a157.78,157.78,0,0,1,2.61,87.9q23.73-58.24,43.27-118.15a5.88,5.88,0,0,1-1.79-.81,185.78,185.78,0,0,1-45.84-41.65c-16.31-20.79-28.38-48.17-20.34-73.35,1-3.26,2.49-6.53,5-8.82,5.32-4.8,13.78-3.87,20.21-.71,10.24,5,17.55,14.52,23.39,24.32A157.85,157.85,0,0,1,1255-103.44l-1.85,9.66s0,0,0,0q17.74-54.63,31.86-110.43a185.58,185.58,0,0,1-45.13-41.15c-16.31-20.79-28.39-48.18-20.34-73.35,1-3.26,2.48-6.53,5-8.83,5.32-4.79,13.77-3.86,20.2-.7,10.24,5,17.55,14.52,23.39,24.32a157.87,157.87,0,0,1,22.08,78.68q12.79-53.24,22.22-107.33a186.06,186.06,0,0,1-19.24-53.31c-5-25.95-3.21-55.82,15.46-74.53,2.42-2.42,5.2-4.67,8.51-5.55,6.92-1.83,14,2.87,18.29,8.61,6.8,9.16,9,20.94,9.68,32.33a157.86,157.86,0,0,1-21.35,89.34l-3.93,5q-5.78,33-12.8,65.63a185.81,185.81,0,0,1,26.21-34.7c18.34-19,43.79-34.77,69.83-30.28,3.38.58,6.82,1.56,9.44,3.76,5.48,4.61,5.73,13.11,3.49,19.91-3.57,10.84-12,19.39-20.85,26.53a157.86,157.86,0,0,1-85.34,34l-6.9-.35q-11.31,50-25.53,99.09a185.34,185.34,0,0,1,36-40.61c20.28-17,47.27-29.86,72.68-22.6,3.3.94,6.61,2.28,9,4.75,5,5.17,4.29,13.65,1.33,20.17-4.71,10.39-14,18-23.58,24.14a157.82,157.82,0,0,1-88.5,24.63l-9.48-1.51q-17.3,58.73-38.6,116.08a185.84,185.84,0,0,1,34.58-33.36c21.26-15.7,49-27,73.91-18.2,3.23,1.14,6.45,2.68,8.67,5.29,4.64,5.46,3.47,13.88.12,20.22-5.33,10.08-15,17.11-25,22.67a157.73,157.73,0,0,1-89.81,19.27l-7.77-1.72Q1210,47,1185.5,100.31a186.32,186.32,0,0,1,30.9-26.13c22-14.66,50.21-24.6,74.69-14.65,3.18,1.29,6.33,3,8.42,5.69,4.37,5.67,2.8,14-.84,20.2-5.81,9.82-15.83,16.38-26.05,21.46a157.75,157.75,0,0,1-90.63,15l-5.79-1.57q-26.43,55.7-56.67,109.49a184.71,184.71,0,0,1,24.34-19.39c22-14.67,50.21-24.61,74.69-14.66,3.18,1.29,6.32,3,8.42,5.69,4.37,5.68,2.79,14-.85,20.2-5.8,9.83-15.82,16.39-26,21.46a157.77,157.77,0,0,1-90.63,15l-5.33-1.45q-23.37,39.87-48.84,78.49a186.14,186.14,0,0,1,42.24-20.25c25.08-8.31,54.93-10.41,75.9,5.68,2.72,2.09,5.31,4.55,6.6,7.72,2.71,6.63-1,14.27-6.17,19.25-8.2,7.93-19.6,11.6-30.8,13.79a157.77,157.77,0,0,1-91.35-9.61l-5.39-3.18A1748.16,1748.16,0,0,1,896.81,540.64C893.55,544.28,887.44,539.67,890.74,536Z" transform="translate(845.42 634.1)"/><g class="cls-5"><path class="cls-3" d="M249.36,840.94c-17.61-35-56-55.72-94.64-62.06C123,773.68,84.59,771.19,53,777.05,14,784.32-25.48,797.9-65.69,791.45A123.79,123.79,0,0,1-129.8,760.2c-38.79-36-12.66-68.55,24.67-91.33-53,4.93-111.5-33.37-142.23-74.73-19-25.51-48.59-68.53-21.68-98,12.88-14.13,32.76-20.08,51.87-20.57-32-29.8-58.65-66.21-72.51-107.68-11.43-34.18-15.59-76.76-2.58-111.22,10.25-27.14,51.57-65,82.54-48.64,35.78,18.91,63.05,61.89,77.62,98.24,15.56,38.81,20.36,79.47,28.72,120,16.1-40.12,63.59-53.84,89.29-16.31,35.13,51.27,34,105.47,44.55,164.1a75.65,75.65,0,0,1,9.34-34.77c11.06-20,36.07-27.4,55.79-16C114,534,127.23,552.11,135.75,571.64c20.13,46.2,2.76,94.85,24.91,140.24a234,234,0,0,0,42.26,60.4c16,16.44,39.39,25.53,52.12,45.12,9,13.9,8.78,30.66,14,46.25" transform="translate(845.42 634.1)"/></g><path class="cls-4" d="M77,704.7q-1.41-93-12-185.32a38.85,38.85,0,0,0-4.31,1.43Q71,611.11,72.47,702.13C49.44,688.9,26.9,675.79,6.17,662a503.36,503.36,0,0,1-47-35.62q-.24-117.06,7.16-233.89A41.47,41.47,0,0,0-38,390.59q-7.38,115.82-7.24,232c-8.67-7.54-17.13-15.3-25.27-23.4q2-103.23-2.4-206.41c-1.46.69-2.89,1.47-4.31,2.31q4.17,99.78,2.32,199.68A537.4,537.4,0,0,1-195.26,404.08q20.07-72.75,37.51-146.17c-1.12-1.63-2.27-3.24-3.42-4.84q-17.07,72.06-36.65,143.48a527.28,527.28,0,0,1-18.59-66.26c-.84-4-7.13-3-6.29,1a533.28,533.28,0,0,0,20.45,71.9c-25.67-2.34-51.22-5.52-76.68-9.35.78,1.62,1.5,3.27,2.33,4.87,25,3.71,50.08,6.79,75.28,9.06a2.12,2.12,0,0,0,.77-.09,544,544,0,0,0,119,188.92q-72.92,8.52-145.28,20.76c1.35,1.29,2.77,2.56,4.16,3.83q72.1-12.08,144.77-20.56s.08,0,.12,0c8.65,8.76,17.69,17.14,26.94,25.31q-61.64,15.61-124,28.12c2.29,1.12,4.6,2.13,6.92,3.14q60.85-12.45,121.1-27.68c7.57,6.54,15.25,12.95,23.19,19.08C3.56,669.49,35,688,67.26,706.45q-97.32,25.47-192.7,57.49c1.33,1.13,2.68,2.24,4.07,3.31q96-32,193.93-57.64a.45.45,0,0,0,.12-.06c46.47,26.52,94.24,53.22,133,87.14,18.48,10.56,34.14,25.3,43.68,44.25l18.31,21.11C227.82,790.68,150.29,746.78,77,704.7Z" transform="translate(845.42 634.1)"/><path class="cls-6" d="M338.38,536a1746.56,1746.56,0,0,1-173-228.07A185.53,185.53,0,0,0,197.18,257c10.17-24.39,14.49-54,0-76.12-1.87-2.86-4.14-5.63-7.2-7.16-6.41-3.2-14.31-.05-19.66,4.71-8.52,7.59-13,18.69-16.05,29.69a157.86,157.86,0,0,0-.3,81.59Q119.4,234,89.06,175.74a185.75,185.75,0,0,0,32.21-51.36c10.17-24.39,14.49-54,0-76.12-1.88-2.87-4.14-5.63-7.21-7.16-6.4-3.2-14.3-.05-19.65,4.71-8.53,7.59-13,18.68-16.05,29.69a157.74,157.74,0,0,0-1.52,76.36Q49.59,97.5,26.1,41.36a6.31,6.31,0,0,0,1.44-1.13A185.87,185.87,0,0,0,63.06-10.52c11.31-23.88,17-53.25,3.64-76-1.74-3-3.86-5.82-6.85-7.5-6.25-3.5-14.3-.73-19.87,3.77-8.87,7.17-13.9,18-17.44,28.89a157.78,157.78,0,0,0-2.61,87.9Q-3.82-31.73-23.34-91.64a5.73,5.73,0,0,0,1.78-.81A185.43,185.43,0,0,0,24.28-134.1c16.31-20.79,28.39-48.17,20.34-73.35-1-3.26-2.48-6.53-5-8.82-5.32-4.8-13.77-3.87-20.2-.71-10.24,5-17.55,14.52-23.4,24.32a157.84,157.84,0,0,0-21.87,89.22L-24-93.78s0,0,0,0q-17.74-54.63-31.86-110.43a185.77,185.77,0,0,0,45.13-41.15C5.53-266.15,17.6-293.54,9.56-318.71c-1-3.26-2.48-6.53-5-8.83-5.32-4.79-13.78-3.86-20.2-.7-10.24,5-17.55,14.52-23.4,24.32a157.86,157.86,0,0,0-22.07,78.68Q-74-278.48-83.37-332.57a185.47,185.47,0,0,0,19.24-53.31c5-25.95,3.21-55.82-15.45-74.53-2.42-2.42-5.2-4.67-8.51-5.55-6.93-1.83-14,2.87-18.29,8.61-6.81,9.16-9,20.94-9.68,32.33a157.7,157.7,0,0,0,21.35,89.34l3.93,5Q-85-297.7-78-265a185.76,185.76,0,0,0-26.2-34.7C-122.53-318.75-148-334.49-174-330c-3.37.58-6.81,1.56-9.43,3.76-5.49,4.61-5.74,13.11-3.5,19.91,3.57,10.84,12,19.39,20.86,26.53a157.83,157.83,0,0,0,85.34,34l6.89-.35q11.31,50,25.53,99.09a185.55,185.55,0,0,0-35.94-40.61c-20.28-17-47.28-29.86-72.69-22.6-3.29.94-6.6,2.28-9,4.75-5,5.17-4.29,13.65-1.33,20.17,4.72,10.39,14,18,23.59,24.14A157.81,157.81,0,0,0-55.2-136.58l9.49-1.51Q-28.43-79.36-7.11-22A186.15,186.15,0,0,0-41.69-55.37c-21.26-15.7-49-27-73.91-18.2-3.23,1.14-6.46,2.68-8.68,5.29-4.63,5.46-3.46,13.88-.12,20.22,5.33,10.08,15,17.11,25,22.67A157.72,157.72,0,0,0-9.59-6.12l7.77-1.72Q19.08,47,43.62,100.31A186,186,0,0,0,12.71,74.18C-9.27,59.52-37.5,49.58-62,59.53c-3.17,1.29-6.32,3-8.41,5.69-4.38,5.67-2.8,14,.84,20.2,5.81,9.82,15.83,16.38,26,21.46a157.78,157.78,0,0,0,90.64,15l5.78-1.57Q79.34,176,109.58,229.76a185.28,185.28,0,0,0-24.33-19.39c-22-14.67-50.21-24.61-74.69-14.66-3.18,1.29-6.33,3-8.42,5.69-4.37,5.68-2.8,14,.84,20.2C8.79,231.43,18.81,238,29,243.06a157.76,157.76,0,0,0,90.63,15l5.32-1.45q23.38,39.87,48.84,78.49a185.87,185.87,0,0,0-42.23-20.25c-25.08-8.31-54.94-10.41-75.9,5.68-2.72,2.09-5.31,4.55-6.61,7.72-2.71,6.63,1,14.27,6.17,19.25,8.2,7.93,19.61,11.6,30.8,13.79a157.81,157.81,0,0,0,91.36-9.61l5.39-3.18A1748.07,1748.07,0,0,0,332.3,540.64C335.57,544.28,341.68,539.67,338.38,536Z" transform="translate(845.42 634.1)"/><rect class="cls-3" x="989.12" y="90.67" width="972.98" height="1889.03" rx="15.25"/><path class="cls-4" d="M750.45-462.78H509.92a18.47,18.47,0,0,1-18.47-18.46h0a18.47,18.47,0,0,1,18.47-18.47H750.45a18.47,18.47,0,0,1,18.46,18.47h0A18.47,18.47,0,0,1,750.45-462.78Z" transform="translate(845.42 634.1)"/><rect class="cls-4" x="1046.97" y="229.52" width="857.26" height="1521.49"/><circle class="cls-7" cx="630.18" cy="1232.25" r="73.81" transform="translate(580.38 810.82) rotate(-13.22)"/><rect class="cls-8" x="1047.33" y="229.52" width="856.56" height="86.63"/><text class="cls-9" transform="translate(1812.65 291.45)">82%</text><rect class="cls-3" x="1751.02" y="245.96" width="8.91" height="53.75"/><rect class="cls-3" x="1737.09" y="257.27" width="8.91" height="42.44"/><rect class="cls-3" x="1723.16" y="270.86" width="8.91" height="28.85"/><rect class="cls-3" x="1709.23" y="278.46" width="8.91" height="21.25"/><path class="cls-3" d="M402.68,332.42a1.59,1.59,0,1,1,0-3.18h6.44a1.82,1.82,0,0,1,1.85,1.57c0,.87-.42,1.59-1.29,1.6h-7Zm-12.88,0h-6.43a1.59,1.59,0,1,1,0-3.18h6.43a1.59,1.59,0,1,1,0,3.18Zm-19.31,0h-6.44a1.59,1.59,0,0,1,0-3.18h6.44a1.59,1.59,0,0,1,0,3.18Zm-19.32,0h-6.44a1.59,1.59,0,0,1,0-3.18h6.44a1.59,1.59,0,0,1,0,3.18Zm-19.32,0h-6.43a1.59,1.59,0,1,1,0-3.18h6.43a1.59,1.59,0,1,1,0,3.18Zm-19.31,0H306.1a1.59,1.59,0,0,1,0-3.18h6.44a1.59,1.59,0,0,1,0,3.18Zm-19.32,0h-2.81c-1.27,0-2.51-.05-3.75-.15a1.59,1.59,0,0,1-1.46-1.71,1.46,1.46,0,0,1,1.71-1.46c1.15.09,2.32.14,3.5.14h2.81a1.59,1.59,0,1,1,0,3.18Zm129.1-2a1.6,1.6,0,0,1-.47-3.12,42,42,0,0,0,5.76-2.26,1.59,1.59,0,1,1,1.38,2.87,44,44,0,0,1-6.2,2.43A1.55,1.55,0,0,1,422.32,330.43Zm-148-1a1.46,1.46,0,0,1-.58-.11,45.44,45.44,0,0,1-6-2.87,1.59,1.59,0,1,1,1.58-2.76,42.15,42.15,0,0,0,5.6,2.66,1.6,1.6,0,0,1-.58,3.08Zm164.65-8.49a1.55,1.55,0,0,1-1.17-.52,1.59,1.59,0,0,1,.1-2.25,44.28,44.28,0,0,0,4.29-4.49,1.58,1.58,0,0,1,2.24-.21,1.6,1.6,0,0,1,.21,2.24,46.46,46.46,0,0,1-4.6,4.82A1.59,1.59,0,0,1,438.94,320.91Zm-180.57-2.16a1.61,1.61,0,0,1-1.15-.49,48,48,0,0,1-4.25-5.13,1.59,1.59,0,1,1,2.58-1.85,43.84,43.84,0,0,0,4,4.77,1.6,1.6,0,0,1-1.15,2.7ZM450,305.28a1.6,1.6,0,0,1-1.47-2.22,41.78,41.78,0,0,0,2-5.87,1.59,1.59,0,0,1,3.08.8,46.06,46.06,0,0,1-2.14,6.32A1.6,1.6,0,0,1,450,305.28ZM248.4,302.39a1.61,1.61,0,0,1-1.51-1.08,45,45,0,0,1-1.69-6.45,1.59,1.59,0,1,1,3.13-.57,44.34,44.34,0,0,0,1.57,6,1.58,1.58,0,0,1-1,2A1.52,1.52,0,0,1,248.4,302.39Zm205.11-16a1.59,1.59,0,0,1-1.59-1.59V278.4a1.59,1.59,0,0,1,3.18,0v6.44A1.59,1.59,0,0,1,453.51,286.43ZM246,283.34a1.6,1.6,0,0,1-1.59-1.6v-6.43a1.59,1.59,0,0,1,3.18,0v6.43A1.6,1.6,0,0,1,246,283.34Zm207.49-16.23a1.59,1.59,0,0,1-1.59-1.59v-6.44a1.59,1.59,0,0,1,3.18,0v6.44A1.59,1.59,0,0,1,453.51,267.11ZM246,264a1.59,1.59,0,0,1-1.59-1.59V256a1.59,1.59,0,1,1,3.18,0v6.44A1.59,1.59,0,0,1,246,264ZM453.51,247.8a1.6,1.6,0,0,1-1.59-1.6v-6.44a1.59,1.59,0,0,1,3.18,0v6.44A1.6,1.6,0,0,1,453.51,247.8ZM246,244.71a1.6,1.6,0,0,1-1.59-1.6v-6.44a1.59,1.59,0,0,1,3.18,0v6.44A1.6,1.6,0,0,1,246,244.71Zm207.49-16.23a1.59,1.59,0,0,1-1.59-1.59v-6.44a1.59,1.59,0,0,1,3.18,0v6.44A1.59,1.59,0,0,1,453.51,228.48ZM246,225.39a1.59,1.59,0,0,1-1.59-1.59v-6.44a1.59,1.59,0,1,1,3.18,0v6.44A1.59,1.59,0,0,1,246,225.39Zm207.49-16.23a1.59,1.59,0,0,1-1.59-1.59v-6.44a1.59,1.59,0,0,1,3.18,0v6.44A1.59,1.59,0,0,1,453.51,209.16ZM246,206.07a1.59,1.59,0,0,1-1.59-1.59V198a1.59,1.59,0,0,1,3.18,0v6.44A1.59,1.59,0,0,1,246,206.07Zm207.49-16.22a1.59,1.59,0,0,1-1.59-1.59v-6.44a1.59,1.59,0,1,1,3.18,0v6.44A1.59,1.59,0,0,1,453.51,189.85ZM246,186.76a1.59,1.59,0,0,1-1.59-1.59v-6.44a1.59,1.59,0,1,1,3.18,0v6.44A1.59,1.59,0,0,1,246,186.76Zm207.49-16.23a1.59,1.59,0,0,1-1.59-1.59v-1.21a42.56,42.56,0,0,0-.3-5,1.6,1.6,0,0,1,1.4-1.77,1.62,1.62,0,0,1,1.76,1.4,46.7,46.7,0,0,1,.32,5.4v1.21A1.59,1.59,0,0,1,453.51,170.53Zm-207.45-3.09H246a1.59,1.59,0,0,1-1.52-1.66,46.29,46.29,0,0,1,.75-6.61,1.57,1.57,0,0,1,1.86-1.27,1.59,1.59,0,0,1,1.27,1.85,44.31,44.31,0,0,0-.7,6.17A1.59,1.59,0,0,1,246.06,167.44Zm203.82-15.72a1.61,1.61,0,0,1-1.47-1,44.13,44.13,0,0,0-2.86-5.5,1.59,1.59,0,0,1,2.71-1.67,47.23,47.23,0,0,1,3.08,5.9,1.6,1.6,0,0,1-.83,2.1A1.55,1.55,0,0,1,449.88,151.72ZM251,148.93a1.65,1.65,0,0,1-.74-.18,1.6,1.6,0,0,1-.67-2.15,44.77,44.77,0,0,1,3.48-5.68,1.59,1.59,0,0,1,2.59,1.86,42.3,42.3,0,0,0-3.25,5.28A1.59,1.59,0,0,1,251,148.93Zm187.68-12.74a1.59,1.59,0,0,1-1.06-.41,43,43,0,0,0-4.91-3.78,1.59,1.59,0,1,1,1.76-2.66,46.34,46.34,0,0,1,5.28,4.07,1.6,1.6,0,0,1-1.07,2.78Zm-175.41-2a1.57,1.57,0,0,1-1.26-.62,1.59,1.59,0,0,1,.28-2.23,48.15,48.15,0,0,1,5.55-3.69,1.6,1.6,0,0,1,1.57,2.78,42.5,42.5,0,0,0-5.17,3.43A1.6,1.6,0,0,1,263.25,134.21Zm158.7-7.4a1.51,1.51,0,0,1-.46-.07,44,44,0,0,0-6-1.35,1.59,1.59,0,1,1,.46-3.15,47.38,47.38,0,0,1,6.5,1.45,1.61,1.61,0,0,1,1.07,2A1.59,1.59,0,0,1,422,126.81ZM280.57,126a1.6,1.6,0,0,1-.36-3.15,45.77,45.77,0,0,1,6.59-1,1.5,1.5,0,0,1,1.71,1.46,1.58,1.58,0,0,1-1.46,1.71,42.19,42.19,0,0,0-6.13.93A2,2,0,0,1,280.57,126Zm122.25-1.1h-6.44a1.59,1.59,0,1,1,0-3.18h6.44a1.59,1.59,0,1,1,0,3.18Zm-19.32,0h-6.43a1.59,1.59,0,1,1,0-3.18h6.43a1.59,1.59,0,1,1,0,3.18Zm-19.31,0h-6.44a1.59,1.59,0,1,1,0-3.18h6.44a1.59,1.59,0,0,1,0,3.18Zm-19.31,0h-6.45a1.59,1.59,0,0,1,0-3.18h6.45a1.59,1.59,0,1,1,0,3.18Zm-19.32,0h-6.44a1.59,1.59,0,1,1,0-3.18h6.44a1.59,1.59,0,0,1,0,3.18Zm-19.32,0H299.8a1.59,1.59,0,0,1,0-3.18h6.44a1.59,1.59,0,0,1,0,3.18Z" transform="translate(845.42 634.1)"/><path class="cls-3" d="M690.07,619.08h-7a1.6,1.6,0,0,1,0-3.19h7a1.6,1.6,0,0,1,0,3.19Zm-19.85,0h-6.44a1.6,1.6,0,0,1,0-3.19h6.44a1.6,1.6,0,0,1,0,3.19Zm-19.32,0h-6.44a1.6,1.6,0,0,1,0-3.19h6.44a1.6,1.6,0,0,1,0,3.19Zm-19.32,0h-6.43a1.6,1.6,0,0,1,0-3.19h6.43a1.6,1.6,0,1,1,0,3.19Zm-19.31,0h-6.44a1.6,1.6,0,0,1,0-3.19h6.44a1.6,1.6,0,0,1,0,3.19Zm-19.31,0h-6.45a1.6,1.6,0,0,1,0-3.19H593a1.6,1.6,0,0,1,0,3.19Zm-19.32,0h-2.81c-1.26,0-2.51-.05-3.76-.16a1.59,1.59,0,0,1,.26-3.17c1.16.1,2.32.14,3.5.14h2.81a1.6,1.6,0,0,1,0,3.19Zm129.1-2a1.59,1.59,0,0,1-.47-3.11A42.77,42.77,0,0,0,708,611.7a1.6,1.6,0,0,1,1.38,2.88,46,46,0,0,1-6.2,2.43A1.49,1.49,0,0,1,702.74,617.08Zm-148-1a1.53,1.53,0,0,1-.58-.11,48,48,0,0,1-6-2.86,1.59,1.59,0,0,1,1.58-2.77,44.13,44.13,0,0,0,5.6,2.67,1.59,1.59,0,0,1-.58,3.07Zm164.66-8.51a1.55,1.55,0,0,1-1.17-.52,1.57,1.57,0,0,1,.1-2.24,45.41,45.41,0,0,0,4.29-4.49,1.59,1.59,0,1,1,2.45,2,46.5,46.5,0,0,1-4.6,4.82A1.55,1.55,0,0,1,719.36,607.55ZM538.77,605.4a1.64,1.64,0,0,1-1.15-.49,46.82,46.82,0,0,1-4.24-5.14,1.58,1.58,0,0,1,.38-2.22,1.6,1.6,0,0,1,2.22.38,40.3,40.3,0,0,0,3.95,4.77,1.6,1.6,0,0,1-1.16,2.7Zm191.68-13.47a1.75,1.75,0,0,1-.62-.12,1.59,1.59,0,0,1-.84-2.09,42.67,42.67,0,0,0,2-5.87,1.61,1.61,0,0,1,1.94-1.15,1.59,1.59,0,0,1,1.14,1.94,45.18,45.18,0,0,1-2.14,6.32A1.58,1.58,0,0,1,730.45,591.93ZM528.81,589a1.59,1.59,0,0,1-1.5-1.08,46.38,46.38,0,0,1-1.7-6.45,1.6,1.6,0,0,1,1.29-1.85,1.58,1.58,0,0,1,1.85,1.28,41.56,41.56,0,0,0,1.57,6,1.59,1.59,0,0,1-1,2A1.63,1.63,0,0,1,528.81,589Zm205.12-15.95a1.59,1.59,0,0,1-1.59-1.59v-6.45a1.59,1.59,0,0,1,3.18,0v6.45A1.59,1.59,0,0,1,733.93,573.09ZM526.44,570a1.6,1.6,0,0,1-1.6-1.59V562a1.6,1.6,0,0,1,3.19,0v6.45A1.59,1.59,0,0,1,526.44,570Zm207.49-16.22a1.59,1.59,0,0,1-1.59-1.59v-6.44a1.59,1.59,0,1,1,3.18,0v6.44A1.59,1.59,0,0,1,733.93,553.77Zm-207.49-3.1a1.6,1.6,0,0,1-1.6-1.59v-6.44a1.6,1.6,0,0,1,3.19,0v6.44A1.59,1.59,0,0,1,526.44,550.67Zm207.49-16.22a1.59,1.59,0,0,1-1.59-1.59v-6.44a1.59,1.59,0,0,1,3.18,0v6.44A1.59,1.59,0,0,1,733.93,534.45Zm-207.49-3.09a1.6,1.6,0,0,1-1.6-1.6v-6.43a1.6,1.6,0,1,1,3.19,0v6.43A1.6,1.6,0,0,1,526.44,531.36Zm207.49-16.22a1.6,1.6,0,0,1-1.59-1.6v-6.43a1.59,1.59,0,1,1,3.18,0v6.43A1.6,1.6,0,0,1,733.93,515.14ZM526.44,512a1.6,1.6,0,0,1-1.6-1.59V504a1.6,1.6,0,0,1,3.19,0v6.44A1.6,1.6,0,0,1,526.44,512Zm207.49-16.22a1.59,1.59,0,0,1-1.59-1.59v-6.44a1.59,1.59,0,1,1,3.18,0v6.44A1.59,1.59,0,0,1,733.93,495.82Zm-207.49-3.1a1.6,1.6,0,0,1-1.6-1.59v-6.44a1.6,1.6,0,0,1,3.19,0v6.44A1.59,1.59,0,0,1,526.44,492.72ZM733.93,476.5a1.59,1.59,0,0,1-1.59-1.59v-6.44a1.59,1.59,0,0,1,3.18,0v6.44A1.59,1.59,0,0,1,733.93,476.5Zm-207.49-3.1a1.6,1.6,0,0,1-1.6-1.59v-6.43a1.6,1.6,0,1,1,3.19,0v6.43A1.59,1.59,0,0,1,526.44,473.4Zm207.49-16.22a1.59,1.59,0,0,1-1.59-1.59v-1.2a45.51,45.51,0,0,0-.29-5,1.59,1.59,0,0,1,1.39-1.76,1.62,1.62,0,0,1,1.77,1.39,45.19,45.19,0,0,1,.31,5.41v1.2A1.59,1.59,0,0,1,733.93,457.18Zm-207.46-3.09h-.07a1.6,1.6,0,0,1-1.52-1.66,47.92,47.92,0,0,1,.75-6.62,1.59,1.59,0,0,1,1.86-1.28,1.61,1.61,0,0,1,1.28,1.86,43,43,0,0,0-.7,6.17A1.6,1.6,0,0,1,526.47,454.09ZM730.3,438.37a1.6,1.6,0,0,1-1.46-1,42.06,42.06,0,0,0-2.87-5.49,1.59,1.59,0,0,1,2.71-1.68,47.24,47.24,0,0,1,3.09,5.9,1.59,1.59,0,0,1-1.47,2.23Zm-198.91-2.8a1.46,1.46,0,0,1-.73-.18,1.59,1.59,0,0,1-.68-2.14,45.48,45.48,0,0,1,3.48-5.68,1.59,1.59,0,0,1,2.59,1.85,43.16,43.16,0,0,0-3.25,5.29A1.57,1.57,0,0,1,531.39,435.57Zm187.69-12.73a1.58,1.58,0,0,1-1.06-.4,44,44,0,0,0-4.91-3.79,1.59,1.59,0,1,1,1.75-2.65,47.43,47.43,0,0,1,5.28,4.06,1.59,1.59,0,0,1-1.06,2.78Zm-175.41-2a1.59,1.59,0,0,1-1-2.84,46.49,46.49,0,0,1,5.55-3.69,1.59,1.59,0,1,1,1.57,2.77,42.39,42.39,0,0,0-5.16,3.43A1.65,1.65,0,0,1,543.67,420.86Zm158.7-7.4a1.41,1.41,0,0,1-.45-.07,42.81,42.81,0,0,0-6-1.34,1.59,1.59,0,1,1,.46-3.15,46.11,46.11,0,0,1,6.5,1.45,1.59,1.59,0,0,1-.46,3.11ZM561,412.68a1.6,1.6,0,0,1-.35-3.15,47.29,47.29,0,0,1,6.58-1,1.48,1.48,0,0,1,1.71,1.47,1.59,1.59,0,0,1-1.46,1.71,43.81,43.81,0,0,0-6.13.92A1.45,1.45,0,0,1,561,412.68Zm122.25-1.1h-6.43a1.59,1.59,0,1,1,0-3.18h6.43a1.59,1.59,0,0,1,0,3.18Zm-19.31,0h-6.44a1.59,1.59,0,0,1,0-3.18h6.44a1.59,1.59,0,1,1,0,3.18Zm-19.32,0h-6.44a1.59,1.59,0,1,1,0-3.18h6.44a1.59,1.59,0,1,1,0,3.18Zm-19.32,0h-6.44a1.59,1.59,0,0,1,0-3.18h6.44a1.59,1.59,0,1,1,0,3.18Zm-19.31,0h-6.44a1.59,1.59,0,1,1,0-3.18H606a1.59,1.59,0,1,1,0,3.18Zm-19.32,0h-6.44a1.59,1.59,0,0,1,0-3.18h6.44a1.59,1.59,0,1,1,0,3.18Z" transform="translate(845.42 634.1)"/><path class="cls-3" d="M409.64,905.73h-7a1.59,1.59,0,1,1,0-3.18h7a1.59,1.59,0,0,1,0,3.18Zm-19.84,0h-6.43a1.59,1.59,0,1,1,0-3.18h6.43a1.59,1.59,0,1,1,0,3.18Zm-19.31,0h-6.44a1.59,1.59,0,0,1,0-3.18h6.44a1.59,1.59,0,0,1,0,3.18Zm-19.32,0h-6.44a1.59,1.59,0,1,1,0-3.18h6.44a1.59,1.59,0,0,1,0,3.18Zm-19.32,0h-6.43a1.59,1.59,0,1,1,0-3.18h6.43a1.59,1.59,0,1,1,0,3.18Zm-19.31,0H306.1a1.59,1.59,0,0,1,0-3.18h6.44a1.59,1.59,0,0,1,0,3.18Zm-19.32,0h-2.81q-1.91,0-3.75-.15a1.6,1.6,0,0,1,.26-3.18c1.15.1,2.31.15,3.49.15h2.81a1.59,1.59,0,1,1,0,3.18Zm129.1-2a1.59,1.59,0,0,1-.47-3.11,42.77,42.77,0,0,0,5.76-2.27,1.6,1.6,0,0,1,1.38,2.88,46,46,0,0,1-6.2,2.43A1.53,1.53,0,0,1,422.32,903.74Zm-148-1a1.47,1.47,0,0,1-.58-.12,45.37,45.37,0,0,1-6-2.86,1.6,1.6,0,0,1-.6-2.17,1.62,1.62,0,0,1,2.18-.6,42.21,42.21,0,0,0,5.6,2.67,1.59,1.59,0,0,1,.9,2.06A1.6,1.6,0,0,1,274.29,902.72Zm164.65-8.51a1.55,1.55,0,0,1-1.17-.52,1.57,1.57,0,0,1,.1-2.24,45.41,45.41,0,0,0,4.29-4.49,1.59,1.59,0,1,1,2.45,2,47.53,47.53,0,0,1-4.6,4.82A1.55,1.55,0,0,1,438.94,894.21Zm-180.58-2.15a1.58,1.58,0,0,1-1.15-.5,45.89,45.89,0,0,1-4.25-5.13,1.59,1.59,0,0,1,2.6-1.84,42.35,42.35,0,0,0,3.95,4.77,1.59,1.59,0,0,1-.05,2.25A1.57,1.57,0,0,1,258.36,892.06ZM450,878.6a1.57,1.57,0,0,1-.62-.13,1.6,1.6,0,0,1-.85-2.09,39.75,39.75,0,0,0,2-5.87,1.62,1.62,0,0,1,1.94-1.14,1.59,1.59,0,0,1,1.15,1.94,46.52,46.52,0,0,1-2.14,6.32A1.61,1.61,0,0,1,450,878.6Zm-201.64-2.9a1.59,1.59,0,0,1-1.5-1.08,45,45,0,0,1-1.7-6.45,1.6,1.6,0,0,1,3.14-.57,42.87,42.87,0,0,0,1.56,6,1.58,1.58,0,0,1-1,2A1.63,1.63,0,0,1,248.39,875.7Zm205.12-16a1.6,1.6,0,0,1-1.59-1.6v-6.43a1.59,1.59,0,1,1,3.18,0v6.43A1.6,1.6,0,0,1,453.51,859.75ZM246,856.64a1.59,1.59,0,0,1-1.59-1.59v-6.44a1.59,1.59,0,0,1,3.18,0v6.44A1.59,1.59,0,0,1,246,856.64Zm207.49-16.21a1.59,1.59,0,0,1-1.59-1.59V832.4a1.59,1.59,0,1,1,3.18,0v6.44A1.59,1.59,0,0,1,453.51,840.43ZM246,837.33a1.6,1.6,0,0,1-1.59-1.6V829.3a1.59,1.59,0,1,1,3.18,0v6.43A1.6,1.6,0,0,1,246,837.33Zm207.49-16.22a1.59,1.59,0,0,1-1.59-1.59v-6.44a1.59,1.59,0,1,1,3.18,0v6.44A1.59,1.59,0,0,1,453.51,821.11ZM246,818a1.59,1.59,0,0,1-1.59-1.59V810a1.59,1.59,0,1,1,3.18,0v6.44A1.59,1.59,0,0,1,246,818ZM453.51,801.8a1.6,1.6,0,0,1-1.59-1.6v-6.43a1.59,1.59,0,1,1,3.18,0v6.43A1.6,1.6,0,0,1,453.51,801.8ZM246,798.7a1.59,1.59,0,0,1-1.59-1.59v-6.45a1.59,1.59,0,0,1,3.18,0v6.45A1.59,1.59,0,0,1,246,798.7Zm207.49-16.22a1.59,1.59,0,0,1-1.59-1.59v-6.44a1.59,1.59,0,1,1,3.18,0v6.44A1.59,1.59,0,0,1,453.51,782.48ZM246,779.38a1.59,1.59,0,0,1-1.59-1.59v-6.44a1.59,1.59,0,1,1,3.18,0v6.44A1.59,1.59,0,0,1,246,779.38Zm207.49-16.21a1.59,1.59,0,0,1-1.59-1.59v-6.45a1.59,1.59,0,1,1,3.18,0v6.45A1.59,1.59,0,0,1,453.51,763.17ZM246,760.06a1.59,1.59,0,0,1-1.59-1.59V752a1.59,1.59,0,0,1,3.18,0v6.44A1.59,1.59,0,0,1,246,760.06Zm207.49-16.21a1.59,1.59,0,0,1-1.59-1.59V741a43.8,43.8,0,0,0-.29-5,1.58,1.58,0,0,1,1.39-1.77,1.63,1.63,0,0,1,1.77,1.4,47.87,47.87,0,0,1,.31,5.39v1.22A1.59,1.59,0,0,1,453.51,743.85Zm-207.45-3.1H246a1.6,1.6,0,0,1-1.52-1.66,46.26,46.26,0,0,1,.75-6.62,1.59,1.59,0,0,1,1.86-1.28,1.6,1.6,0,0,1,1.27,1.86,44.48,44.48,0,0,0-.7,6.17A1.6,1.6,0,0,1,246.06,740.75ZM449.88,725a1.6,1.6,0,0,1-1.46-1,42.12,42.12,0,0,0-2.87-5.49,1.6,1.6,0,0,1,2.72-1.67,47,47,0,0,1,3.07,5.89,1.59,1.59,0,0,1-.82,2.1A1.63,1.63,0,0,1,449.88,725ZM251,722.23a1.46,1.46,0,0,1-.73-.18,1.58,1.58,0,0,1-.68-2.14,43.22,43.22,0,0,1,3.48-5.68,1.59,1.59,0,0,1,2.59,1.85,42,42,0,0,0-3.25,5.29A1.57,1.57,0,0,1,251,722.23ZM438.66,709.5a1.53,1.53,0,0,1-1.05-.4,44.08,44.08,0,0,0-4.92-3.79,1.59,1.59,0,1,1,1.76-2.65,47.31,47.31,0,0,1,5.27,4.06,1.59,1.59,0,0,1-1.06,2.78Zm-175.41-2a1.59,1.59,0,0,1-1-2.85,46.49,46.49,0,0,1,5.55-3.69,1.59,1.59,0,0,1,1.56,2.78,42,42,0,0,0-5.16,3.43A1.61,1.61,0,0,1,263.25,707.51ZM422,700.12a1.41,1.41,0,0,1-.45-.07,44.29,44.29,0,0,0-6.05-1.35,1.58,1.58,0,0,1-1.35-1.8,1.56,1.56,0,0,1,1.81-1.34,46.11,46.11,0,0,1,6.5,1.45,1.58,1.58,0,0,1,1.07,2A1.6,1.6,0,0,1,422,700.12Zm-141.38-.78a1.59,1.59,0,0,1-.34-3.15,46.84,46.84,0,0,1,6.58-1,1.46,1.46,0,0,1,1.71,1.46,1.58,1.58,0,0,1-1.46,1.71,45.5,45.5,0,0,0-6.14.93A1.34,1.34,0,0,1,280.57,699.34Zm122.26-1.1h-6.44a1.59,1.59,0,1,1,0-3.18h6.44a1.59,1.59,0,1,1,0,3.18Zm-19.32,0h-6.44a1.59,1.59,0,1,1,0-3.18h6.44a1.59,1.59,0,1,1,0,3.18Zm-19.32,0h-6.43a1.59,1.59,0,1,1,0-3.18h6.43a1.59,1.59,0,1,1,0,3.18Zm-19.31,0h-6.44a1.59,1.59,0,1,1,0-3.18h6.44a1.59,1.59,0,0,1,0,3.18Zm-19.32,0h-6.44a1.59,1.59,0,0,1,0-3.18h6.44a1.59,1.59,0,1,1,0,3.18Zm-19.31,0H299.8a1.59,1.59,0,1,1,0-3.18h6.45a1.59,1.59,0,0,1,0,3.18Z" transform="translate(845.42 634.1)"/><path class="cls-3" d="M683.1,905.73a1.59,1.59,0,0,1,0-3.18h7a1.6,1.6,0,0,1,0,3.19Zm-12.88,0h-6.44a1.59,1.59,0,1,1,0-3.18h6.44a1.59,1.59,0,0,1,0,3.18Zm-19.32,0h-6.44a1.59,1.59,0,1,1,0-3.18h6.44a1.59,1.59,0,0,1,0,3.18Zm-19.32,0h-6.43a1.59,1.59,0,0,1,0-3.18h6.43a1.59,1.59,0,1,1,0,3.18Zm-19.31,0h-6.44a1.59,1.59,0,0,1,0-3.18h6.44a1.59,1.59,0,1,1,0,3.18Zm-19.31,0h-6.45a1.59,1.59,0,1,1,0-3.18H593a1.59,1.59,0,0,1,0,3.18Zm-19.32,0h-2.81c-1.26,0-2.51-.05-3.76-.15a1.6,1.6,0,0,1,.26-3.18c1.16.1,2.32.15,3.5.15h2.81a1.59,1.59,0,0,1,0,3.18Zm129.09-2a1.6,1.6,0,0,1-.47-3.12,42,42,0,0,0,5.77-2.26,1.59,1.59,0,0,1,1.38,2.87,48.61,48.61,0,0,1-6.2,2.44A2,2,0,0,1,702.73,903.74Zm-148-1a1.54,1.54,0,0,1-.58-.12,46.6,46.6,0,0,1-6-2.86,1.59,1.59,0,0,1,1.58-2.77,42.81,42.81,0,0,0,5.6,2.67,1.6,1.6,0,0,1-.58,3.08Zm164.66-8.5a1.55,1.55,0,0,1-1.17-.52,1.59,1.59,0,0,1,.1-2.25,45.41,45.41,0,0,0,4.29-4.49,1.59,1.59,0,1,1,2.45,2,46.41,46.41,0,0,1-4.6,4.81A1.56,1.56,0,0,1,719.36,894.22Zm-180.58-2.16a1.58,1.58,0,0,1-1.15-.5,45.89,45.89,0,0,1-4.25-5.13,1.59,1.59,0,0,1,2.6-1.84,42.35,42.35,0,0,0,3.95,4.77,1.58,1.58,0,0,1,0,2.25A1.57,1.57,0,0,1,538.78,892.06ZM730.45,878.6a1.57,1.57,0,0,1-.62-.13,1.59,1.59,0,0,1-.84-2.09,42.22,42.22,0,0,0,2-5.87,1.59,1.59,0,1,1,3.08.8,45.18,45.18,0,0,1-2.14,6.32A1.6,1.6,0,0,1,730.45,878.6Zm-201.64-2.91a1.58,1.58,0,0,1-1.51-1.08,45.92,45.92,0,0,1-1.69-6.44,1.61,1.61,0,0,1,1.29-1.86,1.59,1.59,0,0,1,1.85,1.29,42.93,42.93,0,0,0,1.56,6,1.59,1.59,0,0,1-1,2A1.55,1.55,0,0,1,528.81,875.69Zm205.12-15.94a1.6,1.6,0,0,1-1.59-1.6v-6.44a1.59,1.59,0,0,1,3.18,0v6.44A1.6,1.6,0,0,1,733.93,859.75Zm-207.49-3.11a1.6,1.6,0,0,1-1.6-1.59v-6.44a1.6,1.6,0,0,1,3.19,0v6.44A1.59,1.59,0,0,1,526.44,856.64Zm207.49-16.21a1.59,1.59,0,0,1-1.59-1.59v-6.45a1.59,1.59,0,0,1,3.18,0v6.45A1.59,1.59,0,0,1,733.93,840.43Zm-207.49-3.1a1.6,1.6,0,0,1-1.6-1.6V829.3a1.6,1.6,0,1,1,3.19,0v6.43A1.6,1.6,0,0,1,526.44,837.33Zm207.49-16.22a1.59,1.59,0,0,1-1.59-1.59v-6.44a1.59,1.59,0,0,1,3.18,0v6.44A1.59,1.59,0,0,1,733.93,821.11ZM526.44,818a1.6,1.6,0,0,1-1.6-1.59V810a1.6,1.6,0,0,1,3.19,0v6.44A1.6,1.6,0,0,1,526.44,818ZM733.93,801.8a1.6,1.6,0,0,1-1.59-1.6v-6.43a1.59,1.59,0,1,1,3.18,0v6.43A1.6,1.6,0,0,1,733.93,801.8Zm-207.49-3.11a1.6,1.6,0,0,1-1.6-1.59v-6.44a1.6,1.6,0,0,1,3.19,0v6.44A1.59,1.59,0,0,1,526.44,798.69Zm207.49-16.21a1.59,1.59,0,0,1-1.59-1.59v-6.44a1.59,1.59,0,0,1,3.18,0v6.44A1.59,1.59,0,0,1,733.93,782.48Zm-207.49-3.1a1.6,1.6,0,0,1-1.6-1.59v-6.44a1.6,1.6,0,1,1,3.19,0v6.44A1.59,1.59,0,0,1,526.44,779.38Zm207.49-16.22a1.59,1.59,0,0,1-1.59-1.59v-6.44a1.59,1.59,0,0,1,3.18,0v6.44A1.59,1.59,0,0,1,733.93,763.16Zm-207.49-3.1a1.6,1.6,0,0,1-1.6-1.59V752a1.6,1.6,0,0,1,3.19,0v6.44A1.59,1.59,0,0,1,526.44,760.06Zm207.49-16.22a1.59,1.59,0,0,1-1.59-1.59V741a44.92,44.92,0,0,0-.29-5,1.58,1.58,0,0,1,1.39-1.76,1.6,1.6,0,0,1,1.76,1.39,44.7,44.7,0,0,1,.32,5.4v1.21A1.59,1.59,0,0,1,733.93,743.84Zm-207.46-3.1h-.07a1.6,1.6,0,0,1-1.52-1.66,47.92,47.92,0,0,1,.75-6.62,1.58,1.58,0,0,1,1.86-1.27,1.6,1.6,0,0,1,1.28,1.86,42.85,42.85,0,0,0-.7,6.17A1.6,1.6,0,0,1,526.47,740.74ZM730.3,725a1.6,1.6,0,0,1-1.46-1,43.32,43.32,0,0,0-2.86-5.49,1.59,1.59,0,0,1,2.71-1.67,48.48,48.48,0,0,1,3.08,5.89A1.59,1.59,0,0,1,730.3,725Zm-198.91-2.8a1.46,1.46,0,0,1-.73-.18,1.59,1.59,0,0,1-.68-2.14,45.48,45.48,0,0,1,3.48-5.68,1.59,1.59,0,0,1,2.59,1.85,43.16,43.16,0,0,0-3.25,5.29A1.57,1.57,0,0,1,531.39,722.23ZM719.08,709.5a1.58,1.58,0,0,1-1.06-.4,44,44,0,0,0-4.91-3.79,1.59,1.59,0,1,1,1.75-2.65,47.43,47.43,0,0,1,5.28,4.06,1.59,1.59,0,0,1-1.06,2.78Zm-175.41-2a1.59,1.59,0,0,1-1-2.85,46.49,46.49,0,0,1,5.55-3.69,1.6,1.6,0,0,1,1.57,2.78,41.26,41.26,0,0,0-5.16,3.43A1.65,1.65,0,0,1,543.67,707.51Zm158.7-7.39a1.41,1.41,0,0,1-.45-.07,44.29,44.29,0,0,0-6-1.35,1.58,1.58,0,0,1-1.35-1.8,1.57,1.57,0,0,1,1.81-1.34,46.11,46.11,0,0,1,6.5,1.45,1.58,1.58,0,0,1,1.07,2A1.6,1.6,0,0,1,702.37,700.12ZM561,699.34a1.59,1.59,0,0,1-.35-3.14,45.84,45.84,0,0,1,6.58-1,1.47,1.47,0,0,1,1.71,1.46,1.58,1.58,0,0,1-1.46,1.71,42.4,42.4,0,0,0-6.13.93Zm122.25-1.1h-6.43a1.59,1.59,0,1,1,0-3.18h6.43a1.59,1.59,0,1,1,0,3.18Zm-19.31,0h-6.44a1.59,1.59,0,1,1,0-3.18h6.44a1.59,1.59,0,0,1,0,3.18Zm-19.32,0h-6.44a1.59,1.59,0,1,1,0-3.18h6.44a1.59,1.59,0,1,1,0,3.18Zm-19.31,0h-6.45a1.59,1.59,0,0,1,0-3.18h6.45a1.59,1.59,0,1,1,0,3.18Zm-19.32,0h-6.44a1.59,1.59,0,1,1,0-3.18H606a1.59,1.59,0,1,1,0,3.18Zm-19.32,0h-6.43a1.59,1.59,0,1,1,0-3.18h6.43a1.59,1.59,0,1,1,0,3.18Z" transform="translate(845.42 634.1)"/><path class="cls-3" d="M970.47,905.73h-7a1.59,1.59,0,1,1,0-3.18h7a1.59,1.59,0,1,1,0,3.18Zm-19.83,0H944.2a1.59,1.59,0,1,1,0-3.18h6.44a1.59,1.59,0,0,1,0,3.18Zm-19.32,0h-6.43a1.59,1.59,0,1,1,0-3.18h6.43a1.59,1.59,0,1,1,0,3.18Zm-19.31,0h-6.44a1.59,1.59,0,0,1,0-3.18H912a1.59,1.59,0,1,1,0,3.18Zm-19.32,0h-6.44a1.59,1.59,0,1,1,0-3.18h6.44a1.59,1.59,0,0,1,0,3.18Zm-19.31,0h-6.44a1.59,1.59,0,1,1,0-3.18h6.44a1.59,1.59,0,0,1,0,3.18Zm-19.32,0h-2.82q-1.89,0-3.75-.15a1.59,1.59,0,0,1-1.45-1.72,1.56,1.56,0,0,1,1.71-1.46c1.16.1,2.32.15,3.49.15h2.82a1.59,1.59,0,1,1,0,3.18Zm129.1-2a1.6,1.6,0,0,1-.48-3.12,41.06,41.06,0,0,0,5.77-2.26,1.59,1.59,0,0,1,1.38,2.87,48.61,48.61,0,0,1-6.2,2.44A2,2,0,0,1,983.16,903.74Zm-148-1a1.51,1.51,0,0,1-.58-.12,46,46,0,0,1-6-2.86,1.6,1.6,0,0,1-.6-2.17,1.63,1.63,0,0,1,2.18-.6,42.21,42.21,0,0,0,5.6,2.67,1.6,1.6,0,0,1-.58,3.08Zm164.65-8.5a1.56,1.56,0,0,1-1.18-.52,1.6,1.6,0,0,1,.11-2.25A45.3,45.3,0,0,0,1003,887a1.58,1.58,0,0,1,2.24-.21,1.6,1.6,0,0,1,.22,2.24,46.41,46.41,0,0,1-4.6,4.81A1.59,1.59,0,0,1,999.78,894.22ZM819.2,892.06a1.58,1.58,0,0,1-1.15-.5,44.83,44.83,0,0,1-4.25-5.13,1.59,1.59,0,1,1,2.6-1.84,40.3,40.3,0,0,0,4,4.77,1.6,1.6,0,0,1-1.15,2.7Zm191.67-13.46a1.5,1.5,0,0,1-.62-.13,1.6,1.6,0,0,1-.85-2.09,42.22,42.22,0,0,0,2-5.87,1.6,1.6,0,0,1,3.09.8,46.52,46.52,0,0,1-2.14,6.32A1.62,1.62,0,0,1,1010.87,878.6Zm-201.64-2.9a1.59,1.59,0,0,1-1.5-1.08,46.05,46.05,0,0,1-1.69-6.45,1.6,1.6,0,0,1,3.14-.57,41.37,41.37,0,0,0,1.56,6,1.58,1.58,0,0,1-1,2A1.52,1.52,0,0,1,809.23,875.7Zm205.11-16a1.6,1.6,0,0,1-1.59-1.6v-6.43a1.6,1.6,0,0,1,3.19,0v6.43A1.6,1.6,0,0,1,1014.34,859.75Zm-207.48-3.11a1.6,1.6,0,0,1-1.6-1.59v-6.44a1.6,1.6,0,0,1,3.19,0v6.44A1.59,1.59,0,0,1,806.86,856.64Zm207.48-16.21a1.6,1.6,0,0,1-1.59-1.59V832.4a1.6,1.6,0,0,1,3.19,0v6.44A1.6,1.6,0,0,1,1014.34,840.43Zm-207.48-3.1a1.6,1.6,0,0,1-1.6-1.6V829.3a1.6,1.6,0,1,1,3.19,0v6.43A1.6,1.6,0,0,1,806.86,837.33Zm207.48-16.22a1.59,1.59,0,0,1-1.59-1.59v-6.44a1.6,1.6,0,0,1,3.19,0v6.44A1.6,1.6,0,0,1,1014.34,821.11ZM806.86,818a1.6,1.6,0,0,1-1.6-1.6V810a1.6,1.6,0,0,1,3.19,0v6.44A1.6,1.6,0,0,1,806.86,818Zm207.48-16.22a1.6,1.6,0,0,1-1.59-1.6v-6.43a1.6,1.6,0,1,1,3.19,0v6.43A1.6,1.6,0,0,1,1014.34,801.8Zm-207.48-3.1a1.6,1.6,0,0,1-1.6-1.59v-6.45a1.6,1.6,0,0,1,3.19,0v6.45A1.6,1.6,0,0,1,806.86,798.7Zm207.48-16.22a1.6,1.6,0,0,1-1.59-1.59v-6.44a1.6,1.6,0,0,1,3.19,0v6.44A1.6,1.6,0,0,1,1014.34,782.48Zm-207.48-3.1a1.6,1.6,0,0,1-1.6-1.59v-6.44a1.6,1.6,0,0,1,3.19,0v6.44A1.59,1.59,0,0,1,806.86,779.38Zm207.48-16.22a1.59,1.59,0,0,1-1.59-1.59v-6.44a1.6,1.6,0,0,1,3.19,0v6.44A1.6,1.6,0,0,1,1014.34,763.16Zm-207.48-3.1a1.6,1.6,0,0,1-1.6-1.59V752a1.6,1.6,0,0,1,3.19,0v6.44A1.59,1.59,0,0,1,806.86,760.06Zm207.48-16.21a1.6,1.6,0,0,1-1.59-1.59V741a44.6,44.6,0,0,0-.29-5,1.58,1.58,0,0,1,1.39-1.77,1.63,1.63,0,0,1,1.77,1.4,46.66,46.66,0,0,1,.32,5.39v1.22A1.6,1.6,0,0,1,1014.34,743.85Zm-207.45-3.1h-.06a1.6,1.6,0,0,1-1.53-1.66,49.32,49.32,0,0,1,.75-6.62,1.59,1.59,0,0,1,1.86-1.28,1.61,1.61,0,0,1,1.28,1.86,43,43,0,0,0-.7,6.17A1.6,1.6,0,0,1,806.89,740.75ZM1010.71,725a1.6,1.6,0,0,1-1.46-1,42.12,42.12,0,0,0-2.87-5.49,1.6,1.6,0,0,1,2.72-1.67,47,47,0,0,1,3.07,5.89,1.59,1.59,0,0,1-.82,2.1A1.63,1.63,0,0,1,1010.71,725Zm-198.9-2.8a1.45,1.45,0,0,1-.72-.18,1.58,1.58,0,0,1-.69-2.14,45.79,45.79,0,0,1,3.48-5.69,1.6,1.6,0,0,1,2.59,1.87,41.69,41.69,0,0,0-3.24,5.28A1.58,1.58,0,0,1,811.81,722.23ZM999.49,709.5a1.53,1.53,0,0,1-1-.4,43.18,43.18,0,0,0-4.92-3.79,1.59,1.59,0,1,1,1.76-2.65,47.31,47.31,0,0,1,5.27,4.06,1.59,1.59,0,0,1-1.06,2.78Zm-175.4-2a1.59,1.59,0,0,1-1-2.85,47.31,47.31,0,0,1,5.55-3.69,1.6,1.6,0,0,1,1.57,2.78,41.26,41.26,0,0,0-5.16,3.43A1.65,1.65,0,0,1,824.09,707.51Zm158.7-7.39a1.47,1.47,0,0,1-.46-.07,44,44,0,0,0-6.05-1.35,1.58,1.58,0,0,1-1.34-1.8,1.55,1.55,0,0,1,1.8-1.34,45.5,45.5,0,0,1,6.5,1.45,1.57,1.57,0,0,1,1.07,2A1.59,1.59,0,0,1,982.79,700.12Zm-141.38-.78a1.59,1.59,0,0,1-.35-3.15,47.29,47.29,0,0,1,6.58-1,1.46,1.46,0,0,1,1.71,1.46,1.58,1.58,0,0,1-1.46,1.71,45.5,45.5,0,0,0-6.14.93A1.37,1.37,0,0,1,841.41,699.34Zm122.25-1.1h-6.44a1.59,1.59,0,1,1,0-3.18h6.44a1.59,1.59,0,1,1,0,3.18Zm-19.31,0h-6.44a1.59,1.59,0,1,1,0-3.18h6.44a1.59,1.59,0,0,1,0,3.18Zm-19.32,0h-6.44a1.59,1.59,0,0,1,0-3.18H925a1.59,1.59,0,1,1,0,3.18Zm-19.32,0h-6.43a1.59,1.59,0,1,1,0-3.18h6.43a1.59,1.59,0,0,1,0,3.18Zm-19.31,0H880a1.59,1.59,0,1,1,0-3.18h6.44a1.59,1.59,0,0,1,0,3.18Zm-19.32,0h-6.44a1.59,1.59,0,0,1,0-3.18h6.44a1.59,1.59,0,0,1,0,3.18Z" transform="translate(845.42 634.1)"/><rect class="cls-10" x="1091.44" y="470.78" width="207.49" height="207.49" rx="6.97"/><path class="cls-4" d="M349.76,2.58a62.22,62.22,0,0,1-62.15-62.15,62.22,62.22,0,0,1,62.15-62.16,62.22,62.22,0,0,1,62.16,62.16A62.22,62.22,0,0,1,349.76,2.58Zm0-117.94A55.85,55.85,0,0,0,294-59.57,55.84,55.84,0,0,0,349.76-3.79a55.85,55.85,0,0,0,55.79-55.78A55.86,55.86,0,0,0,349.76-115.36Z" transform="translate(845.42 634.1)"/><path class="cls-4" d="M328.21-72.18c0,4.61-1.79,8.34-4,8.34s-4-3.73-4-8.34,1.79-8.33,4-8.33S328.21-76.78,328.21-72.18Z" transform="translate(845.42 634.1)"/><path class="cls-4" d="M379.32-72.18c0,4.61-1.79,8.34-4,8.34s-4-3.73-4-8.34,1.79-8.33,4-8.33S379.32-76.78,379.32-72.18Z" transform="translate(845.42 634.1)"/><path class="cls-4" d="M349.76-49.93c-7.49,0-15.06-5.18-15.06-15.07a2.23,2.23,0,0,1,2.23-2.23A2.22,2.22,0,0,1,339.15-65c0,7.29,5.51,10.61,10.61,10.61S360.37-57.71,360.37-65a2.23,2.23,0,0,1,2.23-2.23A2.23,2.23,0,0,1,364.83-65C364.83-55.11,357.25-49.93,349.76-49.93Z" transform="translate(845.42 634.1)"/><rect class="cls-11" x="1371.86" y="470.78" width="207.49" height="207.49" rx="6.97"/><path class="cls-4" d="M679.25-90.31H581.1a9,9,0,0,1-9-9v-20.3a9,9,0,0,1,9-9h98.15a9,9,0,0,1,9,9v20.3A9,9,0,0,1,679.25-90.31ZM581.1-122.53a2.93,2.93,0,0,0-2.92,2.92v20.3a2.93,2.93,0,0,0,2.92,2.92h98.15a2.93,2.93,0,0,0,2.93-2.92v-20.3a2.93,2.93,0,0,0-2.93-2.92Z" transform="translate(845.42 634.1)"/><path class="cls-4" d="M669.39-26.43H591l-5.53-46.69h89.48Zm-73-6.07H664L668.09-67H592.27Z" transform="translate(845.42 634.1)"/><path class="cls-4" d="M671.36-94.61,660.25-1a5,5,0,0,1-4.93,4.38H605A5,5,0,0,1,600.11-1L589-94.87c-2.08-.21-4.15-.55-6.22-.87L594.08-.28a11,11,0,0,0,11,9.74h50.28a11,11,0,0,0,11-9.73l11.17-94.14Q674.42-94.48,671.36-94.61Z" transform="translate(845.42 634.1)"/><rect class="cls-3" x="1371.86" y="757.44" width="207.49" height="207.49" rx="6.97"/><path class="cls-4" d="M630.19,280.37l-.33,0c-33.8-3.67-62.35-36.21-62.35-71,0-19.57,14.81-35.5,33-35.5,12.28,0,22.83,7.31,29.68,20.3,6.84-13,17.39-20.3,29.66-20.3,18.2,0,33,15.93,33,35.5,0,34.84-28.55,67.38-62.34,71ZM600.51,179.82c-13,0-27,11.27-27,29.47,0,31.25,26.43,61.55,56.65,65,30.21-3.48,56.64-33.78,56.64-65,0-18.2-14-29.47-27-29.47-11.48,0-21.27,8.25-26.86,22.64l-2.8,7.23-2.81-7.23C621.79,188.07,612,179.82,600.51,179.82Z" transform="translate(845.42 634.1)"/><rect class="cls-12" x="1652.28" y="471.77" width="207.49" height="207.49" rx="6.97"/><path class="cls-4" d="M910.73,9.1a2.7,2.7,0,0,1-.49,0l-.11,0a3.72,3.72,0,0,1-.87-.23C884,2,863.09-52.88,863.09-78.35A48.1,48.1,0,0,1,910-126.24a3.75,3.75,0,0,1,.82,0h0a48.08,48.08,0,0,1,47.28,47.89c0,25.41-20.76,80.11-46,87.11A3.14,3.14,0,0,1,910.73,9.1Zm-.13-129.24h-.14a42,42,0,0,0-41.25,41.78c0,22.59,19.51,75,41.39,81.18C932.48-3.33,952-55.76,952-78.35a42,42,0,0,0-41.25-41.78Z" transform="translate(845.42 634.1)"/><path class="cls-4" d="M910.6-57.34a24.57,24.57,0,0,1-24.54-24.54,24.57,24.57,0,0,1,24.54-24.54,24.57,24.57,0,0,1,24.54,24.54A24.57,24.57,0,0,1,910.6-57.34Zm0-43a18.45,18.45,0,0,0-18.43,18.43A18.45,18.45,0,0,0,910.6-63.46,18.45,18.45,0,0,0,929-81.88,18.45,18.45,0,0,0,910.6-100.31Z" transform="translate(845.42 634.1)"/><rect class="cls-13" x="1091.44" y="1044.09" width="207.49" height="207.49" rx="6.97"/><path class="cls-4" d="M398.09,557.25H301.44a13.7,13.7,0,0,1-13.69-13.69V483.92a13.7,13.7,0,0,1,13.69-13.69h96.65a13.71,13.71,0,0,1,13.7,13.69v59.64A13.71,13.71,0,0,1,398.09,557.25Zm-96.65-81.69a8.37,8.37,0,0,0-8.36,8.36v59.64a8.37,8.37,0,0,0,8.36,8.36h96.65a8.37,8.37,0,0,0,8.36-8.36V483.92a8.37,8.37,0,0,0-8.36-8.36Z" transform="translate(845.42 634.1)"/><path class="cls-4" d="M350.18,523.45a13.81,13.81,0,0,1-8.85-3.21l-50-41.37,3.4-4.1,50,41.37a8.5,8.5,0,0,0,11.12-.21l47.56-42.37,3.55,4-47.55,42.37A13.84,13.84,0,0,1,350.18,523.45Z" transform="translate(845.42 634.1)"/><rect class="cls-14" x="1652.28" y="1044.09" width="207.49" height="207.49" rx="6.97"/><path class="cls-4" d="M928.21,584H871.36a17.14,17.14,0,0,1-17.12-17.12V477.36a17.14,17.14,0,0,1,17.12-17.12h56.85a17.15,17.15,0,0,1,17.13,17.12v89.49A17.15,17.15,0,0,1,928.21,584ZM871.36,465.81a11.56,11.56,0,0,0-11.55,11.55v89.49a11.57,11.57,0,0,0,11.55,11.56h56.85a11.58,11.58,0,0,0,11.56-11.56V477.36a11.57,11.57,0,0,0-11.56-11.55Z" transform="translate(845.42 634.1)"/><path class="cls-4" d="M949.84,443.51H893a17.14,17.14,0,0,0-17.12,17.12v3.08a9.31,9.31,0,0,1,5.57.14v-3.22A11.57,11.57,0,0,1,893,449.07h56.85a11.57,11.57,0,0,1,11.55,11.56v89.49a11.56,11.56,0,0,1-11.55,11.55h-7a11.09,11.09,0,0,1-1.08,5.57h8.1A17.14,17.14,0,0,0,967,550.12V460.63A17.14,17.14,0,0,0,949.84,443.51Z" transform="translate(845.42 634.1)"/><path class="cls-4" d="M927,488.93H872.6a3,3,0,0,1-3-3h0a3,3,0,0,1,3-3H927a3,3,0,0,1,3,3h0A3,3,0,0,1,927,488.93Z" transform="translate(845.42 634.1)"/><path class="cls-4" d="M927,507H872.6a3,3,0,0,1-3-3h0a3,3,0,0,1,3-3H927a3,3,0,0,1,3,3h0A3,3,0,0,1,927,507Z" transform="translate(845.42 634.1)"/><path class="cls-4" d="M927,525.13H872.6a3,3,0,0,1-3-3h0a3,3,0,0,1,3-3H927a3,3,0,0,1,3,3h0A3,3,0,0,1,927,525.13Z" transform="translate(845.42 634.1)"/><path class="cls-4" d="M927,543.23H872.6a3,3,0,0,1-3-3h0a3,3,0,0,1,3-3H927a3,3,0,0,1,3,3h0A3,3,0,0,1,927,543.23Z" transform="translate(845.42 634.1)"/><path class="cls-4" d="M927,561.32H872.6a3,3,0,0,1-3-3h0a3,3,0,0,1,3-3H927a3,3,0,0,1,3,3h0A3,3,0,0,1,927,561.32Z" transform="translate(845.42 634.1)"/><path class="cls-15" d="M1360.84,764.21,1374,970.73l431.4-30.65s23.68,55.57,45.25,78.16c.34-75-16.47-137.35-16.47-137.35L1468,876.82l-4.55-128.21" transform="translate(845.42 634.1)"/><path class="cls-16" d="M1811.94,954.55c8.54,18.05,24.08,48.4,38.68,63.69.34-75-16.47-137.35-16.47-137.35l-21.24-.24c-1.33,19.54,4,39.6,15.57,55.41C1820.76,939.67,1815.26,946.6,1811.94,954.55Z" transform="translate(845.42 634.1)"/><path class="cls-10" d="M1521.73,410.14a280.2,280.2,0,0,0,136.6-8.37c27.59-8.82,60-30.94,72.56-57.75,4.67-9.93,6.85-20.83,8.51-31.67a214.47,214.47,0,0,0,2-50.11c-2.88-34.89-16.45-73-43.65-96.47-12.52-10.8-24.85-19.56-35.28-32.44-32-39.48-31.36-93.85-29.25-141.87,1.11-25.13-1.38-52.18-17.74-72.56-15.45-19.24-38.39-32.32-63.72-29.08-3.43.44-6.9,1.1-10.33.6s-6.36-2-9.43-3.36c-38-16.73-92.55-5.34-125.43,18.53-12.44,9-23.86,22.73-27.61,37.92-3.52,14.23.06,29.26-1.55,43.83-2.72,24.58-19.57,44.89-31.73,66.45-17.61,31.21-22.32,67.89-17.36,103,5.14,36.46,22.14,71.34,20.45,108.76a143.05,143.05,0,0,1-6.33,34.32c-3,10.06-6.74,20-7.38,30.51-1.39,22.83,12.89,44.83,32.53,56.7s43.75,14.68,66.59,12.19" transform="translate(845.42 634.1)"/><path class="cls-17" d="M2251.1,547.93h173.81a4.6,4.6,0,0,1,4.6,4.6V759.17a10.71,10.71,0,0,1-10.71,10.71H2251.1a10.34,10.34,0,0,1-10.34-10.34V558.27A10.34,10.34,0,0,1,2251.1,547.93Z"/><path class="cls-10" d="M1441.77-99.11s14.08,51.94,72.29,48.79c4.69,22.41,3.78,70,81.94,89.57,3.74-29.82,5.9-126.15-15.68-129.33S1441.77-99.11,1441.77-99.11Z" transform="translate(845.42 634.1)"/><path class="cls-17" d="M1484.49,197.49c17.14.16,34.51,1.73,51.4-1.43l-19.57-87.52-34.58,6.12,2.14,82.92C1484.1,197.58,1484.27,197.49,1484.49,197.49Z" transform="translate(845.42 634.1)"/><polyline class="cls-17" points="2217.42 873.42 2149.91 898.09 2004.72 814.88 1977.6 849.56 2142.83 967.67 2254.6 929.33"/><path class="cls-17" d="M1745.32,695.47c-.76-1-1.53-2-2.29-3l-9.69-68h0c-8.22-60.48-36.28-257.9-57.55-300.53l-55.65,16.1S1676,561.78,1688,636.21l5,50.61c-3,1.22-9.44,3.91-12.71,6.28-9.15,6.64-14.45,14.94-11.84,18.53s12.13,1.12,21.28-5.52q1.65-1.2,3.12-2.46c-.36,3-.64,6.08-.76,9.38-.63,16.85,2.31,30.65,6.57,30.81s8.22-13.38,8.85-30.24v-.06c.14,1.08.24,2.13.4,3.24,2.64,18.16,8.09,32.4,12.17,31.81s5.17-15.22,2.72-32.89c0,.06,0,.12.07.19,5.62,15.9,13.44,27.64,17.46,26.22s2.72-15.46-2.91-31.37q-1-2.84-2.09-5.46c9.67,12.67,19.59,21.07,22.55,18.88S1755.35,709,1745.32,695.47Z" transform="translate(845.42 634.1)"/><path class="cls-17" d="M1494,779.92l27.9,542.95s-83.83,18.38-90.76,47.2c55.92,6.21,142.68-5.35,142.68-5.35l16-616.11" transform="translate(845.42 634.1)"/><path class="cls-16" d="M1329.11,755.66c-.56,6.92-1.07,13.41-1.51,19.25a924.29,924.29,0,0,0,301.13,10.46q.36-9.47.67-19.42A906.2,906.2,0,0,1,1329.11,755.66Z" transform="translate(845.42 634.1)"/><rect class="cls-11" x="916.57" y="71.36" width="207.49" height="207.49" rx="6.97" transform="translate(830.52 813.89) rotate(-10)"/><path class="cls-4" d="M1084.45,211.78,978.22,230.51a17.15,17.15,0,0,1-19.83-13.89L947.2,153.13a17.12,17.12,0,0,1,13.88-19.82l106.24-18.73a17.12,17.12,0,0,1,19.82,13.88l11.2,63.49A17.15,17.15,0,0,1,1084.45,211.78Zm-122.26-72.2A10.76,10.76,0,0,0,953.47,152l11.19,63.49a10.76,10.76,0,0,0,12.45,8.71l106.24-18.72a10.76,10.76,0,0,0,8.71-12.45l-11.19-63.49a10.76,10.76,0,0,0-12.45-8.72Z" transform="translate(845.42 634.1)"/><path class="cls-4" d="M1027.77,200.89a28.78,28.78,0,1,1,23.35-33.35A28.83,28.83,0,0,1,1027.77,200.89Zm-8.89-50.42a22.42,22.42,0,1,0,26,18.18A22.43,22.43,0,0,0,1018.88,150.47Z" transform="translate(845.42 634.1)"/><path class="cls-4" d="M996.61,176.44a11.17,11.17,0,0,1-.1-1.42l-40.94,7.22a3.18,3.18,0,1,0,1.1,6.27l42-7.41A10.47,10.47,0,0,1,996.61,176.44Z" transform="translate(845.42 634.1)"/><path class="cls-4" d="M1089.24,158.67l-43.08,7.6a12.54,12.54,0,0,1,.83,6.32l43.36-7.64a3.19,3.19,0,0,0-1.11-6.28Z" transform="translate(845.42 634.1)"/><path class="cls-4" d="M1036.36,122.57c1.67-.36,3.33-.69,5-1l-.48-2.73a4,4,0,0,1,3.27-4.67l13.11-2.31a4,4,0,0,1,4.67,3.27l.62,3.49c2.13-.13,4.27-.23,6.43-.21l-.78-4.39a10.41,10.41,0,0,0-12-8.43l-13.11,2.31a10.41,10.41,0,0,0-8.44,12l.54,3A11.43,11.43,0,0,1,1036.36,122.57Z" transform="translate(845.42 634.1)"/><path class="cls-17" d="M1622.41,78.41c-15.43,14.91-37.3,17.31-48.86,5.35s-8.42-33.73,7-48.65,37.3-17.31,48.86-5.35S1637.84,63.5,1622.41,78.41Z" transform="translate(845.42 634.1)"/><path class="cls-3" d="M1497.77,180.78s-45.18,1.58-61,12.13-74.67,43.52-74.67,43.52L1395,315l20.7-10.31,14.8,156.94,138.66,5.55L1607,333.57l7.4,34,84.23-21.37s-37-117-59.42-127.83c-17.76-13.05-110.78-37.56-110.78-37.56Z" transform="translate(845.42 634.1)"/><polygon class="cls-18" points="2306.29 614.56 2287.19 679.62 2322.66 679.56 2306.29 614.56"/><path class="cls-19" d="M1454.15,56.34a20.59,20.59,0,0,0,.19,2.21,21.85,21.85,0,0,0,42.92-8.18,19.36,19.36,0,0,0-.64-2.13Z" transform="translate(845.42 634.1)"/><path class="cls-10" d="M1493.27,67.19a18.36,18.36,0,0,0-29,5.54,21.83,21.83,0,0,0,29-5.54Z" transform="translate(845.42 634.1)"/><path class="cls-19" d="M1433,21.84c.37,5.81-1.47,10.66-4.12,10.83s-5.1-4.4-5.47-10.21,1.47-10.65,4.12-10.82S1432.65,16,1433,21.84Z" transform="translate(845.42 634.1)"/><path class="cls-19" d="M1504.25,21.84c.38,5.81-1.47,10.66-4.12,10.83s-5.09-4.4-5.47-10.21,1.48-10.65,4.12-10.82S1503.88,16,1504.25,21.84Z" transform="translate(845.42 634.1)"/><path class="cls-17" d="M1528.43,180.78h-30.66s-12.07.43-25.91,2.29c2.81,11.5,9.41,22.3,18.79,29,23.27,16.7,53-.65,65.54-23.63C1540.22,183.89,1528.43,180.78,1528.43,180.78Z" transform="translate(845.42 634.1)"/><path class="cls-16" d="M1495.36,826.22c40.93,1.12,82.57.59,123-6.33,1.91-.33,5-.76,8.75-1.26,5.56-95.07,5.61-268.19-10.69-304.81-5.06-16.39-20.76-49.22-70.37-69.58,0,0-90.2,2.48-96.12,2.05,0,0-69,14.9-91.4,96.28-20.87,75.84-31.93,244-33.17,264.21C1380.67,821.44,1441.82,824.75,1495.36,826.22Z" transform="translate(845.42 634.1)"/><path class="cls-16" d="M1572.54,461,1607,333.57l-22.65-46.12,22-83.35c-2.43-.84-4.92-1.68-7.45-2.52l-24.92,79L1454.54,273l-5.8-85.27a62.52,62.52,0,0,0-7,2.55V279l-25.52,31.31,13.6,144.14Z" transform="translate(845.42 634.1)"/><path class="cls-16" d="M1574.75,1328.22a120.18,120.18,0,0,0-24,15.08,132,132,0,0,0-32.28-19.63c-15.71,3.79-81.28,21-87.37,46.4,55.92,6.21,142.68-5.35,142.68-5.35Z" transform="translate(845.42 634.1)"/><path class="cls-17" d="M1150.38,174.85c-3.31-5.38-10.43-12.37-19.61-18.75-14.62-10.17-28.89-14.94-31.87-10.65-2.85,4.09,5.7,15,19.21,24.8-8.23,14.63-4.92,32.88,8.35,42.11,14.15,9.84,34.1,5.64,44.55-9.39a34.72,34.72,0,0,0,4.83-10.41Z" transform="translate(845.42 634.1)"/><path class="cls-13" d="M1624.93-452.28H1330.5a31.69,31.69,0,0,0-31.69,31.7v65.05a31.69,31.69,0,0,0,31.69,31.7h26v28.65a10.29,10.29,0,0,0,17.3,7.53l33.84-36.18h217.33a31.7,31.7,0,0,0,31.7-31.7v-65.05A31.7,31.7,0,0,0,1624.93-452.28Z" transform="translate(845.42 634.1)"/><path class="cls-4" d="M1422.59-386.39a14.07,14.07,0,0,0-14.07-14.07,14.07,14.07,0,0,0-14.07,14.07,14.07,14.07,0,0,0,14.07,14.07A14.07,14.07,0,0,0,1422.59-386.39Z" transform="translate(845.42 634.1)"/><path class="cls-4" d="M1488.86-386.39a14.07,14.07,0,0,0-14.07-14.07,14.07,14.07,0,0,0-14.07,14.07,14.07,14.07,0,0,0,14.07,14.07A14.07,14.07,0,0,0,1488.86-386.39Z" transform="translate(845.42 634.1)"/><path class="cls-4" d="M1555.13-386.39a14.07,14.07,0,0,0-14.07-14.07A14.07,14.07,0,0,0,1527-386.39a14.07,14.07,0,0,0,14.07,14.07A14.07,14.07,0,0,0,1555.13-386.39Z" transform="translate(845.42 634.1)"/><path class="cls-10" d="M-431.64,949.44H-98a35.93,35.93,0,0,1,35.92,35.93v73.71A35.93,35.93,0,0,1-98,1095h-29.41v32.45A11.67,11.67,0,0,1-147,1136l-38.35-41H-431.64a35.93,35.93,0,0,1-35.92-35.93V985.37A35.93,35.93,0,0,1-431.64,949.44Z" transform="translate(845.42 634.1)"/><circle class="cls-4" cx="659.02" cy="1658.21" r="15.94"/><path class="cls-4" d="M-277.44,1024.11a15.93,15.93,0,0,1,15.94-15.94,15.94,15.94,0,0,1,15.94,15.94,15.94,15.94,0,0,1-15.94,15.94A15.94,15.94,0,0,1-277.44,1024.11Z" transform="translate(845.42 634.1)"/><circle class="cls-4" cx="508.82" cy="1658.21" r="15.94"/></g></svg>